<svg viewBox="0 0 512 512" fill="none" xmlns="http://www.w3.org/2000/svg">
<path fill-rule="evenodd" clip-rule="evenodd" d="M325.196 175.022C306.571 123.938 282.693 58.447 224.729 43.5815C178.339 31.6843 36.1487 75.4296 113.9 281.107C175.827 444.926 228.82 492.308 324.937 465.005C400.668 443.493 427.869 381.598 420.584 338.377C413.143 294.236 390.072 268.36 368.32 243.962C352.978 226.756 338.293 210.284 330.209 188.659C328.567 184.268 326.904 179.705 325.196 175.022ZM203.585 245.601C201.529 253.481 199.684 260.554 190.138 263.214C186.953 264.101 181.704 262.492 181.704 262.492C181.704 262.492 176.078 260.712 173.283 255.8C167.055 244.855 169.994 232.934 175.36 221.541C176.771 218.545 177.748 216.54 179.445 214.109C189.995 198.999 206.152 191.846 220.475 188.277C231.903 185.429 249.069 181.956 264.764 186.104C273.249 188.347 280.337 193.758 285.422 199.071C290.608 204.49 295.038 211.187 297.538 217.935C299.774 223.969 299.755 229.93 299.745 233.169C299.715 242.627 295.207 250.272 288.61 256.723C286.662 258.628 284.506 260.258 282.276 261.946C278.828 264.554 275.2 267.299 271.881 271.402C265.862 278.843 263.484 283.75 260.296 293C257.352 301.542 250.463 308.118 240.015 304.618C235.199 303.005 231.585 299.694 229.35 295.815C227.882 293.267 227.435 290.864 227.279 289.936C227.07 288.693 227 287.556 226.982 286.666C226.717 273.581 238.731 256.71 248.287 250.447C254.978 246.062 259.259 242.725 259.469 234.265C259.89 217.305 242.065 215.728 229.778 218.771C209.258 223.853 206.245 235.403 203.585 245.601ZM246.596 321.472C240.33 325.028 235.846 327.573 231.962 336.709C230.343 340.516 230.081 349.452 234.678 355.387C240.21 362.528 248.913 366.946 258.11 366.451C268.12 365.911 276.934 359.575 280.571 349.156C282.842 342.65 282.014 340.294 279.826 334.068C279.753 333.861 279.679 333.649 279.603 333.433C275.38 321.394 260.179 313.611 248.724 320.255C247.992 320.68 247.283 321.082 246.596 321.472Z" fill="url(#paint0_linear_8_62)"/>
<defs>
<linearGradient id="paint0_linear_8_62" x1="33.9165" y1="28.1367" x2="508" y2="552" gradientUnits="userSpaceOnUse">
<stop stop-color="#2F5D7D"/>
<stop offset="1" stop-color="#44CA71"/>
</linearGradient>
</defs>
</svg>
